# xmcd
#
# Track frame offsets:
#	150
#	17883
#	33170
#	39872
#	51196
#	54746
#	58001
#	60844
#	74144
#	86043
#	94982
#	108767
#	123266
#	144893
#	152965
#	158589
#	169504
#	182216
#	190805
#	202234
#
# Disc length: 2896 seconds
# Revision: 0
# Processed by: cddbd v1.5.2PL0 Copyright (c) Steve Scherf et al.
# Submitted via: dBpowerAMP V12.0
#
DISCID=120b4e14
DTITLE=Ted Egan - Saving the Best
DYEAR=1900
DGENRE=Country
TTITLE0=The Laughing Game
TTITLE1=Two Little Boys
TTITLE2=Black Swan
TTITLE3=If Ever
TTITLE4=The Devil and his Shovel
TTITLE5=Exercise
TTITLE6=Little Tommy Tucker
TTITLE7=Don't Call Wagga Wagga Wagga
TTITLE8=The Irish Jaunting Car
TTITLE9=Babes in the Wood
TTITLE10=Young Girls and Horses
TTITLE11=The Green Eyed Dragon
TTITLE12=John Flynn
TTITLE13=Only One of the Toys
TTITLE14=The Muffin Man
TTITLE15=Giants
TTITLE16=Wawirri
TTITLE17=Have you been to the rock?
TTITLE18=That's a Camel
TTITLE19=Arnhem Land Lullaby
EXTD=
EXTT0=
EXTT1=
EXTT2=
EXTT3=
EXTT4=
EXTT5=
EXTT6=
EXTT7=
EXTT8=
EXTT9=
EXTT10=
EXTT11=
EXTT12=
EXTT13=
EXTT14=
EXTT15=
EXTT16=
EXTT17=
EXTT18=
EXTT19=
PLAYORDER=
